<?xml version="1.0" standalone="no"?>
<!DOCTYPE svg PUBLIC "-//W3C//DTD SVG 20010904//EN"
 "http://www.w3.org/TR/2001/REC-SVG-20010904/DTD/svg10.dtd">
<svg version="1.0" xmlns="http://www.w3.org/2000/svg"
 width="827.000000pt" height="827.000000pt" viewBox="0 0 827.000000 827.000000"
 preserveAspectRatio="xMidYMid meet">
<metadata>
Created by potrace 1.11, written by Peter Selinger 2001-2013
</metadata>
<g transform="translate(0.000000,827.000000) scale(0.100000,-0.100000)"
fill="#000000" stroke="none">
<path d="M4000 8263 c-32 -3 -169 -26 -231 -38 -57 -11 -216 -68 -283 -102
-214 -108 -375 -273 -447 -458 -27 -70 -32 -89 -48 -187 -10 -59 -5 -179 10
-243 12 -52 66 -177 90 -208 13 -16 17 -14 51 31 146 190 382 329 658 386 150
31 240 40 415 40 411 0 702 -103 932 -329 195 -192 294 -448 302 -782 l1 -23
988 0 987 0 0 390 c0 215 -2 390 -5 391 -3 0 -447 1 -987 1 l-983 1 0 41 c-7
570 -344 965 -915 1072 -85 15 -441 27 -535 17z"/>
<path d="M889 6979 c0 -13 -2 -33 -4 -44 -20 -98 -27 -408 -13 -555 50 -523
269 -972 667 -1371 168 -167 305 -279 505 -412 452 -301 950 -525 1887 -847
141 -48 297 -104 347 -124 49 -20 93 -36 96 -36 4 0 32 -11 62 -25 30 -14 56
-25 59 -25 4 0 109 -48 225 -102 171 -81 333 -184 453 -288 42 -36 119 -136
154 -199 16 -29 33 -54 38 -55 12 -1 40 79 58 163 42 199 19 437 -61 613 -93
206 -260 356 -573 516 -243 124 -440 204 -899 362 -781 270 -1293 491 -1675
723 -328 200 -640 456 -811 667 -16 19 -31 37 -34 40 -22 21 -89 113 -150 205
-135 204 -260 501 -305 725 -18 90 -25 108 -26 69z"/>
<path d="M694 2805 c2 -104 7 -201 9 -215 7 -35 20 -120 22 -150 1 -14 14 -77
29 -140 99 -430 281 -802 556 -1135 49 -59 277 -284 335 -330 27 -22 56 -46
63 -53 29 -27 212 -153 301 -207 142 -86 339 -184 506 -252 183 -74 438 -158
545 -179 14 -3 59 -14 100 -24 41 -10 91 -21 110 -24 19 -3 58 -10 85 -15 116
-24 327 -52 500 -68 186 -16 897 -8 1035 12 14 2 56 6 93 10 37 3 76 8 85 10
9 1 40 6 67 9 28 4 88 14 135 22 47 9 99 18 115 20 70 12 349 86 450 119 371
124 698 300 955 513 160 133 346 342 454 510 70 108 169 318 214 455 38 114
87 325 97 420 3 23 7 58 11 77 17 101 11 495 -9 647 -4 32 -17 41 -18 12 -1
-30 -15 -106 -43 -229 -26 -109 -83 -264 -148 -400 -210 -435 -580 -790 -1093
-1048 -258 -130 -690 -267 -965 -307 -25 -3 -63 -10 -85 -15 -22 -5 -65 -11
-95 -15 -30 -3 -66 -8 -80 -10 -14 -2 -54 -6 -90 -10 -36 -3 -81 -8 -100 -10
-230 -24 -955 -25 -1050 0 -8 2 -46 6 -85 10 -83 8 -103 10 -261 35 -723 115
-1403 402 -1879 795 -391 323 -658 711 -826 1204 l-50 146 5 -190z"/>
</g>
</svg>
