<?xml version="1.0" encoding="utf-8"?>
<!-- Generator: Adobe Illustrator 23.0.0, SVG Export Plug-In . SVG Version: 6.00 Build 0)  -->
<svg version="1.1" id="Capa_1" xmlns="http://www.w3.org/2000/svg" xmlns:xlink="http://www.w3.org/1999/xlink" x="0px" y="0px"
	 viewBox="0 0 24 24" style="enable-background:new 0 0 24 24;" xml:space="preserve">
<style type="text/css">
	.st0{fill:none;}
	.st1{fill:#333333;}
</style>
<g>
	<path class="st0" d="M0,0h24v24H0V0z"/>
</g>
<g>
	<path class="st1" d="M16,11.6h-3.6V8c0-0.2-0.2-0.4-0.4-0.4S11.6,7.8,11.6,8v3.6H8c-0.2,0-0.4,0.2-0.4,0.4s0.2,0.4,0.4,0.4h3.6V16
		c0,0.2,0.2,0.4,0.4,0.4s0.4-0.2,0.4-0.4v-3.6H16c0.2,0,0.4-0.2,0.4-0.4S16.2,11.6,16,11.6z"/>
	<path class="st1" d="M12,2.6c-5.2,0-9.4,4.2-9.4,9.4s4.2,9.4,9.4,9.4s9.4-4.2,9.4-9.4S17.2,2.6,12,2.6z M12,20.6
		c-4.8,0-8.6-3.9-8.6-8.6S7.2,3.4,12,3.4s8.6,3.9,8.6,8.6S16.8,20.6,12,20.6z"/>
</g>
</svg>
